<svg width="16.426270" height="16.425781" viewBox="0 0 16.4263 16.4258" fill="none" xmlns="http://www.w3.org/2000/svg" xmlns:xlink="http://www.w3.org/1999/xlink">
	<desc>
			Created with Pixso.
	</desc>
	<defs>
		<clipPath id="clip1156_1691">
			<rect id="add-user 1" rx="0.000000" width="15.913043" height="15.913043" transform="translate(0.256662 0.256662)" fill="white" fill-opacity="0"/>
		</clipPath>
	</defs>
	<rect id="add-user 1" rx="0.000000" width="15.913043" height="15.913043" transform="translate(0.256662 0.256662)" fill="#FFFFFF" fill-opacity="0"/>
	<g clip-path="url(#clip1156_1691)">
		<path id="Vector" d="M6.5 8.59C8.38 8.59 9.89 7.06 9.89 5.15C9.89 3.24 8.38 1.71 6.5 1.71C4.61 1.71 3.1 3.24 3.1 5.15C3.1 7.06 4.61 8.59 6.5 8.59ZM6.5 10.27C3.73 10.27 1.36 10.71 1.36 12.48C1.36 14.25 3.71 14.71 6.5 14.71C9.27 14.71 11.63 14.27 11.63 12.5C11.63 10.73 9.28 10.27 6.5 10.27ZM13.61 6.56L14.44 6.56C14.78 6.56 15.05 6.84 15.05 7.18C15.05 7.53 14.78 7.8 14.44 7.8L13.61 7.8L13.61 8.61C13.61 8.96 13.34 9.23 13 9.23C12.66 9.23 12.38 8.96 12.38 8.61L12.38 7.8L11.56 7.8C11.22 7.8 10.95 7.53 10.95 7.18C10.95 6.84 11.22 6.56 11.56 6.56L12.38 6.56L12.38 5.75C12.38 5.41 12.66 5.13 13 5.13C13.34 5.13 13.61 5.41 13.61 5.75L13.61 6.56Z" fill="#FFFFFF" fill-opacity="1.000000" fill-rule="evenodd"/>
	</g>
</svg>
