<svg width="39.979980" height="40.000000" viewBox="0 0 39.98 40" fill="none" xmlns="http://www.w3.org/2000/svg" xmlns:xlink="http://www.w3.org/1999/xlink">
	<desc>
			Created with Pixso.
	</desc>
	<defs/>
	<path id="Vector" d="M28.37 0L11.62 0C4.34 0 0 4.33 0 11.62L0 28.35C0 35.66 4.34 40 11.62 40L28.36 40C35.63 40 39.98 35.66 39.98 28.37L39.98 11.62C40 4.33 35.65 0 28.37 0ZM30 30.5L10 30.5C9.17 30.5 8.5 29.82 8.5 29C8.5 28.17 9.17 27.5 10 27.5L30 27.5C30.82 27.5 31.5 28.17 31.5 29C31.5 29.82 30.82 30.5 30 30.5ZM30 21.5L10 21.5C9.17 21.5 8.5 20.82 8.5 20C8.5 19.17 9.17 18.5 10 18.5L30 18.5C30.82 18.5 31.5 19.17 31.5 20C31.5 20.82 30.82 21.5 30 21.5ZM30 12.5L10 12.5C9.17 12.5 8.5 11.82 8.5 11C8.5 10.17 9.17 9.5 10 9.5L30 9.5C30.82 9.5 31.5 10.17 31.5 11C31.5 11.82 30.82 12.5 30 12.5Z" fill="#5D50C6" fill-opacity="1.000000" fill-rule="nonzero"/>
</svg>
