<svg width="70.663574" height="20.000000" viewBox="0 0 70.6636 20" fill="none" xmlns="http://www.w3.org/2000/svg" xmlns:xlink="http://www.w3.org/1999/xlink">
	<desc>
			Created with Pixso.
	</desc>
	<defs/>
	<path id="path4354" d="M33.96 15.64L31.76 15.64C31.75 15.64 31.75 15.64 31.74 15.64L29.85 13.33L27.96 15.64C27.95 15.64 27.95 15.64 27.94 15.64L26.18 15.64C26.17 15.64 26.16 15.64 26.15 15.63C26.15 15.62 26.15 15.61 26.16 15.6L28.95 12.18L26.19 8.79C26.19 8.78 26.19 8.77 26.19 8.76C26.19 8.75 26.2 8.75 26.21 8.75L28.4 8.75C28.41 8.75 28.42 8.75 28.42 8.76L30.09 10.82L31.78 8.76C31.78 8.75 31.79 8.75 31.8 8.75L33.58 8.75C33.59 8.75 33.6 8.75 33.61 8.76C33.62 8.77 33.61 8.78 33.6 8.79L31 11.93L33.99 15.6C33.99 15.61 33.99 15.62 33.99 15.63C33.98 15.64 33.97 15.64 33.96 15.64Z" fill="#191825" fill-opacity="0.500000" fill-rule="nonzero"/>
	<path id="path4358" d="M45.84 9.96C44.87 9.96 44.21 10.55 44.01 11.57L47.32 11.57L47.32 11.5C47.32 10.69 46.72 9.96 45.84 9.96ZM49.02 12.62C49.02 12.63 49.01 12.64 49 12.64L43.98 12.64C44.08 13.81 44.84 14.47 46.07 14.47C46.83 14.47 47.63 14.22 48.77 13.61C48.79 13.6 48.81 13.62 48.81 13.64L48.81 15.18C48.81 15.2 48.8 15.2 48.79 15.2C47.74 15.65 46.67 15.96 45.84 15.96C43.68 15.96 42.11 14.38 42.11 12.21C42.11 10.04 43.68 8.46 45.84 8.46C47.81 8.46 49.08 9.79 49.08 11.62C49.08 11.92 49.03 12.6 49.02 12.62Z" fill="#191825" fill-opacity="0.500000" fill-rule="nonzero"/>
	<path id="path4362" d="M59.23 7.31C58.61 7.31 58.11 6.82 58.11 6.21C58.11 5.59 58.61 5.08 59.23 5.08C59.85 5.08 60.35 5.59 60.35 6.21C60.35 6.82 59.85 7.31 59.23 7.31ZM58.33 15.64C58.3 15.64 58.3 15.64 58.3 15.61L58.3 8.76C58.3 8.75 58.3 8.74 58.32 8.74L60.13 8.74C60.15 8.74 60.15 8.75 60.15 8.76L60.15 15.61C60.15 15.64 60.14 15.64 60.13 15.64L58.33 15.64Z" fill="#191825" fill-opacity="0.500000" fill-rule="nonzero"/>
	<path id="path4366" d="M37.28 14.61C36.95 14.61 36.62 14.57 36.23 14.47L36.24 10.07C36.69 9.93 37.08 9.87 37.47 9.87C38.73 9.87 39.57 10.79 39.57 12.17C39.57 13.65 38.67 14.61 37.28 14.61ZM37.78 8.46C37.26 8.46 36.75 8.55 36.2 8.74L34.4 8.74C34.38 8.74 34.37 8.75 34.37 8.76L34.37 20C34.91 19.92 35.58 19.72 36.23 19.26L36.23 15.85C36.68 15.91 37.05 15.96 37.4 15.96C39.87 15.96 41.47 14.47 41.47 12.18C41.47 9.99 39.95 8.46 37.78 8.46Z" fill="#191825" fill-opacity="0.500000" fill-rule="nonzero"/>
	<path id="path4370" d="M55.02 14.05C54.46 14.34 53.95 14.48 53.48 14.48C52.36 14.48 51.69 13.69 51.69 12.36C51.69 10.83 52.54 9.84 53.87 9.84C54.24 9.84 54.59 9.93 55.02 10.12L55.02 14.05ZM55.02 5.12L55.02 8.7C54.5 8.55 54.03 8.48 53.56 8.48C51.4 8.48 49.78 10.1 49.78 12.25C49.78 14.39 51.21 15.95 53.19 15.95C53.87 15.95 54.51 15.78 55.26 15.39L55.26 16.01C55.75 15.92 56.32 15.72 56.89 15.32L56.89 4.38C56.34 4.46 55.68 4.65 55.02 5.12Z" fill="#191825" fill-opacity="0.500000" fill-rule="nonzero"/>
	<path id="path4374" d="M66.45 14.03C65.9 14.34 65.43 14.5 65.01 14.5C63.81 14.5 63.09 13.7 63.09 12.37C63.09 10.87 63.94 9.85 65.2 9.85C65.53 9.85 65.94 9.98 66.45 10.25L66.45 14.03ZM68.31 8.66C68.31 8.62 68.27 8.58 68.23 8.58L66.77 8.58C66.72 8.58 66.68 8.62 66.68 8.66L66.68 8.91L66.65 8.91C65.97 8.61 65.39 8.48 64.83 8.48C62.8 8.48 61.2 10.16 61.2 12.31C61.2 14.49 62.63 15.95 64.75 15.95C65.31 15.95 66.04 15.91 66.72 15.13L66.72 16.01C67.2 15.91 67.77 15.71 68.31 15.32L68.31 8.66Z" fill="#191825" fill-opacity="0.500000" fill-rule="nonzero"/>
	<path id="path4378" d="M21.16 13.94L25.71 13.94C25.64 14.44 25.47 15.04 25.08 15.64L20.35 15.64C19.77 15.64 19.29 15.19 19.23 14.63C19.23 14.62 19.23 14.62 19.23 14.6L19.23 5.62C19.23 5.61 19.23 5.6 19.23 5.6C19.29 5.03 19.77 4.58 20.35 4.58L25.71 4.58C25.64 5.08 25.46 5.7 25.07 6.3L21.16 6.3L21.16 8.75L25.03 8.75C25.05 8.75 25.06 8.76 25.06 8.78L25.06 10.47C25.06 10.49 25.05 10.5 25.03 10.5L21.16 10.5L21.16 13.94Z" fill="#191825" fill-opacity="0.500000" fill-rule="nonzero"/>
	<path id="path4382" d="M15.46 15.79C15.01 15.79 14.73 15.44 14.73 15C14.73 14.55 15.05 14.22 15.46 14.22C15.86 14.22 16.18 14.54 16.18 15C16.18 15.47 15.86 15.79 15.46 15.79ZM15.46 14.14C15 14.14 14.6 14.48 14.6 15C14.6 15.5 14.96 15.87 15.46 15.87C15.91 15.87 16.31 15.53 16.31 15C16.31 14.48 15.92 14.14 15.46 14.14Z" fill="#191825" fill-opacity="0.500000" fill-rule="nonzero"/>
	<path id="path4386" d="M15.26 14.94L15.26 14.62L15.47 14.62C15.58 14.62 15.71 14.63 15.71 14.76C15.71 14.92 15.59 14.93 15.46 14.93C15.45 14.94 15.26 14.94 15.26 14.94ZM15.86 14.78C15.86 14.57 15.74 14.48 15.49 14.48L15.1 14.48L15.1 15.51L15.26 15.51L15.26 15.07L15.42 15.07L15.69 15.51L15.88 15.51L15.6 15.06C15.75 15.05 15.86 14.97 15.86 14.78Z" fill="#191825" fill-opacity="0.500000" fill-rule="nonzero"/>
	<path id="path4390" d="M69.81 9.88C69.36 9.88 69.08 9.53 69.08 9.1C69.08 8.64 69.4 8.31 69.81 8.31C70.21 8.31 70.53 8.63 70.53 9.1C70.53 9.56 70.21 9.88 69.81 9.88ZM69.81 8.23C69.35 8.23 68.96 8.58 68.96 9.1C68.96 9.6 69.31 9.97 69.81 9.97C70.26 9.97 70.66 9.62 70.66 9.1C70.66 8.57 70.26 8.23 69.81 8.23Z" fill="#191825" fill-opacity="0.500000" fill-rule="nonzero"/>
	<path id="path4394" d="M69.6 9.03L69.6 8.71L69.82 8.71C69.93 8.71 70.05 8.73 70.05 8.86C70.05 9.02 69.94 9.03 69.8 9.03L69.6 9.03ZM70.21 8.88C70.21 8.67 70.09 8.58 69.84 8.58L69.45 8.58L69.45 9.61L69.62 9.61L69.62 9.17L69.78 9.17L70.04 9.61L70.23 9.61L69.95 9.16C70.1 9.14 70.21 9.07 70.21 8.88Z" fill="#191825" fill-opacity="0.500000" fill-rule="nonzero"/>
	<path id="path4398" d="M9.58 6.29L9.26 5.36L6.45 1.61L6.95 1.49L11.78 5.67L14.62 4.85C14.96 4.77 15.34 4.75 15.63 4.75C14.74 2.82 13.1 1.24 10.94 0.47C6.68 -1.05 1.99 1.18 0.47 5.45C0 6.77 -0.11 8.14 0.09 9.43L6.89 7.07L9.58 6.29Z" fill="#191825" fill-opacity="0.500000" fill-rule="nonzero"/>
	<path id="path4402" d="M15.93 5.49C15.68 5.65 15.31 5.86 14.95 5.98L12.1 6.8L10.2 12.9L9.71 13.06L10.11 8.4L9.89 7.43L7.22 8.2L0.16 9.85C0.72 12.56 2.64 14.93 5.44 15.92C9.71 17.44 14.4 15.21 15.92 10.94C16.57 9.12 16.53 7.2 15.93 5.49Z" fill="#191825" fill-opacity="0.500000" fill-rule="nonzero"/>
	<path id="path4406" d="M9.88 7.43L10.11 8.39L9.7 13.05L10.2 12.89L12.09 6.79L14.94 5.98C15.31 5.85 15.67 5.65 15.92 5.48C15.83 5.23 15.74 4.99 15.63 4.75C15.33 4.75 14.96 4.76 14.62 4.85L11.78 5.66L6.95 1.48L6.45 1.61L9.25 5.35L9.58 6.29L6.89 7.06L0.08 9.42C0.1 9.56 0.13 9.71 0.16 9.85L7.21 8.19L9.88 7.43Z" fill="#FFFFFF" fill-opacity="1.000000" fill-rule="nonzero"/>
</svg>
