<svg width="117.877197" height="20.000000" viewBox="0 0 117.877 20" fill="none" xmlns="http://www.w3.org/2000/svg" xmlns:xlink="http://www.w3.org/1999/xlink">
	<desc>
			Created with Pixso.
	</desc>
	<defs/>
	<mask id="mask1156_1760" mask-type="alpha" maskUnits="userSpaceOnUse" x="0.000000" y="0.000000" width="117.877197" height="20.000000">
		<path id="Vector" d="M0 0L117.87 0L117.87 20L0 20L0 0Z" fill="#000000" fill-opacity="1.000000" fill-rule="evenodd"/>
	</mask>
	<g mask="url(#mask1156_1760)">
		<mask id="mask1156_1765" mask-type="alpha" maskUnits="userSpaceOnUse" x="0.000000" y="0.000000" width="117.877197" height="20.000000">
			<path id="Vector" d="M0 0L117.87 0L117.87 20L0 20L0 0Z" fill="#000000" fill-opacity="1.000000" fill-rule="evenodd"/>
		</mask>
		<g mask="url(#mask1156_1765)">
			<path id="Vector" d="M46.22 2.18C46.22 1.19 47.02 0.39 48.01 0.39C49 0.39 49.81 1.19 49.81 2.18C49.77 3.17 48.94 3.94 47.95 3.91C47.01 3.87 46.26 3.12 46.22 2.18Z" fill="#191825" fill-opacity="0.500000" fill-rule="nonzero"/>
		</g>
		<mask id="mask1156_1770" mask-type="alpha" maskUnits="userSpaceOnUse" x="0.000000" y="0.000000" width="117.877197" height="20.000000">
			<path id="Vector" d="M0 0L117.87 0L117.87 20L0 20L0 0Z" fill="#000000" fill-opacity="1.000000" fill-rule="evenodd"/>
		</mask>
		<g mask="url(#mask1156_1770)">
			<path id="Vector" d="M74.48 14.13C74.48 13.14 75.28 12.33 76.27 12.33C77.26 12.33 78.07 13.14 78.07 14.13C78.07 15.12 77.26 15.92 76.27 15.92C75.28 15.92 74.48 15.12 74.48 14.13Z" fill="#191825" fill-opacity="0.500000" fill-rule="nonzero"/>
		</g>
		<mask id="mask1156_1775" mask-type="alpha" maskUnits="userSpaceOnUse" x="0.000000" y="0.000000" width="117.877197" height="20.000000">
			<path id="Vector" d="M0 0L117.87 0L117.87 20L0 20L0 0Z" fill="#000000" fill-opacity="1.000000" fill-rule="evenodd"/>
		</mask>
		<g mask="url(#mask1156_1775)">
			<path id="Vector" d="M16.82 13.35C15.28 13.35 14.21 12.13 14.21 10.38C14.21 8.63 15.28 7.4 16.82 7.4C18.37 7.4 19.46 8.63 19.46 10.38C19.46 12.16 18.4 13.35 16.82 13.35ZM16.82 4.79C13.56 4.79 11.19 7.14 11.19 10.38C11.19 13.62 13.56 15.97 16.82 15.97C20.1 15.97 22.48 13.62 22.48 10.38C22.48 7.14 20.1 4.79 16.82 4.79ZM42.75 10.66C42.64 10.44 42.49 10.23 42.33 10.05L42.23 9.95L42.33 9.85C42.48 9.69 42.63 9.51 42.78 9.29L45.66 5.01L42.16 5.01L40 8.36C39.88 8.54 39.63 8.62 39.26 8.62L38.76 8.62L38.76 2.29C38.76 1.03 37.98 0.85 37.12 0.85L35.66 0.85L35.66 15.8L38.76 15.8L38.76 11.32L39.05 11.32C39.4 11.32 39.64 11.36 39.76 11.55L41.46 14.78C41.94 15.66 42.42 15.8 43.31 15.8L45.69 15.8L43.92 12.88L42.75 10.66ZM57.79 4.76C56.22 4.76 55.21 5.46 54.65 6.06L54.46 6.25L54.4 5.99C54.23 5.35 53.67 5.01 52.83 5.01L51.44 5.01L51.45 15.8L54.53 15.8L54.53 10.83C54.53 10.34 54.59 9.92 54.72 9.54C55.07 8.37 56.02 7.64 57.21 7.64C58.17 7.64 58.55 8.15 58.55 9.46L58.55 14.16C58.55 15.28 59.07 15.8 60.19 15.8L61.65 15.8L61.64 8.94C61.64 6.2 60.31 4.76 57.79 4.76ZM48.05 5.01L46.59 5.01L46.6 13.35L46.6 15.8L48.16 15.8L48.21 15.8L48.94 15.8L49.66 15.8L49.66 15.8L49.67 15.8L49.67 6.65C49.67 5.55 49.14 5.01 48.05 5.01ZM28.91 13.35C27.37 13.35 26.29 12.13 26.29 10.38C26.29 8.63 27.37 7.4 28.91 7.4C30.46 7.4 31.55 8.63 31.55 10.38C31.54 12.16 30.48 13.35 28.91 13.35ZM28.91 4.79C25.64 4.79 23.27 7.14 23.27 10.38C23.27 13.62 25.64 15.97 28.91 15.97C32.18 15.97 34.56 13.62 34.56 10.38C34.56 7.14 32.18 4.79 28.91 4.79Z" fill="#191825" fill-opacity="0.500000" fill-rule="nonzero"/>
		</g>
	</g>
	<mask id="mask1156_1781" mask-type="alpha" maskUnits="userSpaceOnUse" x="0.000000" y="0.000000" width="117.877197" height="20.000000">
		<path id="Vector" d="M0 0L117.87 0L117.87 20L0 20L0 0Z" fill="#000000" fill-opacity="1.000000" fill-rule="evenodd"/>
	</mask>
	<g mask="url(#mask1156_1781)">
		<mask id="mask1156_1786" mask-type="alpha" maskUnits="userSpaceOnUse" x="0.000000" y="0.394531" width="117.852051" height="19.582031">
			<path id="Vector" d="M0 0.39L117.85 0.39L117.85 19.97L0 19.97L0 0.39Z" fill="#000000" fill-opacity="1.000000" fill-rule="evenodd"/>
		</mask>
		<g mask="url(#mask1156_1786)">
			<mask id="mask1156_1791" mask-type="alpha" maskUnits="userSpaceOnUse" x="0.000000" y="0.000000" width="117.877197" height="20.000000">
				<path id="Vector" d="M0 0L117.87 0L117.87 20L0 20L0 0Z" fill="#000000" fill-opacity="1.000000" fill-rule="evenodd"/>
			</mask>
			<g mask="url(#mask1156_1791)">
				<path id="Vector" d="M94.87 13.35C93.32 13.35 92.25 12.13 92.25 10.38C92.25 8.63 93.32 7.41 94.87 7.41C96.41 7.41 97.5 8.63 97.5 10.38C97.5 12.16 96.44 13.35 94.87 13.35ZM94.87 4.79C91.6 4.79 89.23 7.14 89.23 10.38C89.23 13.62 91.6 15.97 94.87 15.97C98.14 15.97 100.52 13.62 100.52 10.38C100.52 7.14 98.14 4.79 94.87 4.79Z" fill="#191825" fill-opacity="0.500000" fill-rule="nonzero"/>
			</g>
			<mask id="mask1156_1796" mask-type="alpha" maskUnits="userSpaceOnUse" x="0.000000" y="0.000000" width="117.877197" height="20.000000">
				<path id="Vector" d="M0 0L117.87 0L117.87 20L0 20L0 0Z" fill="#000000" fill-opacity="1.000000" fill-rule="evenodd"/>
			</mask>
			<g mask="url(#mask1156_1796)">
				<path id="Vector" d="M68.13 12.88C66.45 12.88 65.85 11.41 65.85 10.04C65.85 9.43 66 7.46 67.97 7.46C68.95 7.46 70.25 7.74 70.25 10.14C70.25 12.4 69.09 12.88 68.13 12.88ZM71.84 4.98C71.26 4.98 70.81 5.21 70.59 5.64L70.5 5.81L70.36 5.68C69.86 5.25 68.97 4.74 67.53 4.74C64.65 4.74 62.71 6.9 62.71 10.12C62.71 13.33 64.72 15.58 67.59 15.58C68.57 15.58 69.34 15.35 69.95 14.88L70.19 14.71L70.19 15C70.19 16.45 69.26 17.24 67.57 17.24C66.74 17.24 66 17.04 65.5 16.86C64.85 16.66 64.46 16.83 64.2 17.48L63.95 18.08L63.61 18.96L63.82 19.08C64.9 19.65 66.31 20 67.58 20C70.2 20 73.26 18.66 73.26 14.88L73.27 4.98L71.84 4.98L71.84 4.98Z" fill="#191825" fill-opacity="0.500000" fill-rule="nonzero"/>
			</g>
		</g>
	</g>
	<mask id="mask1156_1802" mask-type="alpha" maskUnits="userSpaceOnUse" x="0.000000" y="0.000000" width="117.877197" height="20.000000">
		<path id="Vector" d="M0 0L117.87 0L117.87 20L0 20L0 0Z" fill="#000000" fill-opacity="1.000000" fill-rule="evenodd"/>
	</mask>
	<g mask="url(#mask1156_1802)">
		<mask id="mask1156_1807" mask-type="alpha" maskUnits="userSpaceOnUse" x="0.000000" y="0.000000" width="117.877197" height="20.000000">
			<path id="Vector" d="M0 0L117.87 0L117.87 20L0 20L0 0Z" fill="#000000" fill-opacity="1.000000" fill-rule="evenodd"/>
		</mask>
		<g mask="url(#mask1156_1807)">
			<path id="Vector" d="M5.37 13.23L2.86 13.23L2.86 10.23C2.86 9.59 3.11 9.26 3.65 9.19L5.36 9.19C6.58 9.19 7.37 9.95 7.37 11.2C7.37 12.48 6.6 13.23 5.37 13.23ZM2.86 5.16L2.86 4.37C2.86 3.67 3.15 3.35 3.79 3.31L5.07 3.31C6.17 3.31 6.83 3.96 6.83 5.07C6.83 5.91 6.38 6.89 5.11 6.89L2.86 6.89L2.86 5.16ZM8.56 8.14L8.11 7.89L8.5 7.55C8.97 7.16 9.73 6.26 9.73 4.73C9.73 2.38 7.91 0.86 5.09 0.86L1.51 0.86C0.67 0.89 0 1.58 0 2.41L0 15.75L5.16 15.75C8.29 15.75 10.32 14.04 10.32 11.4C10.32 9.98 9.66 8.76 8.56 8.14Z" fill="#191825" fill-opacity="0.500000" fill-rule="nonzero"/>
		</g>
		<mask id="mask1156_1812" mask-type="alpha" maskUnits="userSpaceOnUse" x="0.000000" y="0.000000" width="117.877197" height="20.000000">
			<path id="Vector" d="M0 0L117.87 0L117.87 20L0 20L0 0Z" fill="#000000" fill-opacity="1.000000" fill-rule="evenodd"/>
		</mask>
		<g mask="url(#mask1156_1812)">
			<path id="Vector" d="M114.26 4.8C112.98 4.8 111.76 5.39 110.96 6.4L110.74 6.68L110.56 6.37C109.99 5.33 109.01 4.8 107.65 4.8C106.22 4.8 105.26 5.6 104.81 6.07L104.52 6.39L104.41 5.97C104.25 5.37 103.71 5.05 102.91 5.05L101.61 5.05L101.6 15.8L104.54 15.8L104.54 11.05C104.54 10.63 104.59 10.22 104.69 9.79C104.97 8.64 105.74 7.41 107.04 7.53C107.83 7.61 108.23 8.23 108.23 9.42L108.23 15.79L111.18 15.79L111.18 11.05C111.18 10.53 111.23 10.14 111.35 9.75C111.59 8.65 112.39 7.53 113.64 7.53C114.55 7.53 114.88 8.04 114.88 9.42L114.88 14.22C114.88 15.31 115.37 15.79 116.45 15.79L117.84 15.79L117.84 8.93C117.85 6.19 116.64 4.8 114.26 4.8ZM87.53 12.06C87.52 12.07 86.25 13.41 84.59 13.41C83.07 13.41 81.54 12.48 81.54 10.4C81.54 8.6 82.73 7.35 84.43 7.35C84.98 7.35 85.61 7.55 85.71 7.88L85.72 7.94C85.85 8.41 86.28 8.73 86.77 8.73L88.38 8.73L88.38 7.32C88.38 5.47 86.02 4.8 84.43 4.8C81.03 4.8 78.57 7.16 78.57 10.42C78.57 13.67 81 16.04 84.36 16.04C87.28 16.04 88.87 14.12 88.88 14.1L88.96 14L87.69 11.89L87.53 12.06Z" fill="#191825" fill-opacity="0.500000" fill-rule="nonzero"/>
		</g>
	</g>
</svg>
