<svg width="64.083740" height="20.000000" viewBox="0 0 64.0837 20" fill="none" xmlns="http://www.w3.org/2000/svg" xmlns:xlink="http://www.w3.org/1999/xlink">
	<desc>
			Created with Pixso.
	</desc>
	<defs/>
	<path id="Vector" d="M33.77 5.02C33.77 5.74 33.19 6.32 32.47 6.32C31.75 6.32 31.17 5.74 31.17 5.02C31.17 4.3 31.73 3.72 32.47 3.72C33.21 3.74 33.77 4.32 33.77 5.02ZM28.4 7.64L28.4 7.96C28.4 7.96 27.78 7.16 26.46 7.16C24.28 7.16 22.58 8.82 22.58 11.13C22.58 13.41 24.26 15.09 26.46 15.09C27.8 15.09 28.4 14.27 28.4 14.27L28.4 14.61C28.4 14.77 28.52 14.89 28.68 14.89L30.31 14.89L30.31 7.36L28.68 7.36C28.52 7.36 28.4 7.5 28.4 7.64ZM28.4 12.47C28.1 12.91 27.5 13.29 26.78 13.29C25.5 13.29 24.52 12.49 24.52 11.13C24.52 9.76 25.5 8.96 26.78 8.96C27.48 8.96 28.12 9.37 28.4 9.78L28.4 12.47ZM31.51 7.36L33.43 7.36L33.43 14.89L31.51 14.89L31.51 7.36ZM60.22 7.16C58.89 7.16 58.27 7.96 58.27 7.96L58.27 3.74L56.35 3.74L56.35 14.89L57.97 14.89C58.13 14.89 58.25 14.75 58.25 14.61L58.25 14.27C58.25 14.27 58.87 15.09 60.2 15.09C62.38 15.09 64.08 13.41 64.08 11.13C64.08 8.84 62.38 7.16 60.22 7.16ZM59.89 13.27C59.15 13.27 58.57 12.89 58.27 12.45L58.27 9.76C58.57 9.37 59.21 8.94 59.89 8.94C61.18 8.94 62.16 9.75 62.16 11.1C62.16 12.47 61.18 13.27 59.89 13.27ZM55.35 10.42L55.35 14.91L53.43 14.91L53.43 10.65C53.43 9.41 53.03 8.91 51.95 8.91C51.37 8.91 50.77 9.21 50.39 9.64L50.39 14.89L48.46 14.89L48.46 7.36L49.99 7.36C50.15 7.36 50.27 7.5 50.27 7.64L50.27 7.96C50.83 7.38 51.57 7.16 52.31 7.16C53.15 7.16 53.85 7.4 54.41 7.88C55.09 8.44 55.35 9.16 55.35 10.42ZM43.8 7.16C42.48 7.16 41.86 7.96 41.86 7.96L41.86 3.74L39.94 3.74L39.94 14.89L41.56 14.89C41.72 14.89 41.84 14.75 41.84 14.61L41.84 14.27C41.84 14.27 42.46 15.09 43.78 15.09C45.96 15.09 47.66 13.41 47.66 11.13C47.68 8.84 45.98 7.16 43.8 7.16ZM43.48 13.27C42.74 13.27 42.16 12.89 41.86 12.45L41.86 9.76C42.16 9.37 42.8 8.94 43.48 8.94C44.76 8.94 45.74 9.75 45.74 11.1C45.74 12.47 44.76 13.27 43.48 13.27ZM38.27 7.16C38.85 7.16 39.15 7.26 39.15 7.26L39.15 9.05C39.15 9.05 37.55 8.5 36.55 9.64L36.55 14.91L34.63 14.91L34.63 7.36L36.25 7.36C36.41 7.36 36.53 7.5 36.53 7.64L36.53 7.96C36.89 7.54 37.67 7.16 38.27 7.16ZM18.31 14.21C18.21 13.97 18.11 13.71 18.01 13.49C17.85 13.13 17.69 12.79 17.55 12.47L17.53 12.45C16.15 9.44 14.67 6.4 13.11 3.4L13.05 3.28C12.88 2.97 12.72 2.66 12.57 2.34C12.37 1.98 12.17 1.6 11.85 1.24C11.21 0.44 10.29 0 9.31 0C8.3 0 7.4 0.44 6.74 1.2C6.44 1.56 6.22 1.94 6.02 2.3C5.87 2.61 5.71 2.92 5.54 3.24L5.48 3.36C3.94 6.36 2.44 9.41 1.06 12.41L1.04 12.45C0.9 12.77 0.74 13.11 0.58 13.47C0.48 13.69 0.38 13.93 0.28 14.19C0.02 14.93 -0.06 15.63 0.04 16.35C0.26 17.85 1.26 19.11 2.64 19.67C3.16 19.89 3.7 20 4.26 20C4.42 20 4.62 19.98 4.78 19.96C5.44 19.87 6.12 19.66 6.78 19.28C7.6 18.82 8.39 18.16 9.27 17.19C10.15 18.16 10.95 18.82 11.75 19.28C12.41 19.66 13.09 19.87 13.75 19.96C13.91 19.98 14.11 20 14.27 20C14.83 20 15.39 19.89 15.89 19.67C17.29 19.11 18.27 17.83 18.5 16.35C18.65 15.65 18.57 14.95 18.31 14.21ZM9.29 15.25C8.2 13.89 7.5 12.61 7.26 11.53C7.16 11.07 7.14 10.67 7.2 10.31C7.24 9.98 7.36 9.71 7.52 9.46C7.9 8.92 8.54 8.58 9.29 8.58C10.03 8.58 10.69 8.91 11.05 9.46C11.21 9.71 11.33 9.99 11.37 10.31C11.43 10.67 11.41 11.08 11.31 11.53C11.07 12.59 10.37 13.87 9.29 15.25ZM17.27 16.19C17.13 17.23 16.43 18.13 15.45 18.53C14.97 18.73 14.45 18.8 13.93 18.73C13.43 18.67 12.93 18.51 12.41 18.21C11.69 17.81 10.97 17.19 10.13 16.27C11.45 14.65 12.25 13.17 12.55 11.85C12.69 11.23 12.71 10.67 12.65 10.14C12.57 9.64 12.39 9.18 12.11 8.78C11.49 7.88 10.45 7.36 9.29 7.36C8.12 7.36 7.08 7.9 6.46 8.78C6.18 9.18 6 9.64 5.92 10.14C5.84 10.67 5.86 11.25 6.02 11.85C6.32 13.17 7.14 14.67 8.44 16.29C7.62 17.21 6.88 17.83 6.16 18.23C5.64 18.53 5.14 18.69 4.64 18.75C4.1 18.82 3.58 18.73 3.12 18.55C2.14 18.16 1.44 17.25 1.3 16.21C1.24 15.71 1.28 15.21 1.48 14.65C1.54 14.45 1.64 14.25 1.74 14.01C1.88 13.69 2.04 13.35 2.2 13.01L2.22 12.97C3.6 9.98 5.08 6.94 6.62 3.98L6.68 3.86C6.84 3.56 7 3.24 7.16 2.94C7.32 2.62 7.5 2.32 7.72 2.06C8.14 1.58 8.7 1.32 9.33 1.32C9.95 1.32 10.51 1.58 10.93 2.06C11.15 2.32 11.33 2.62 11.49 2.94C11.65 3.24 11.81 3.56 11.97 3.86L12.03 3.98C13.55 6.96 15.01 9.96 16.41 12.99L16.41 13.01C16.57 13.33 16.71 13.69 16.87 14.01C16.97 14.25 17.07 14.45 17.13 14.65C17.29 15.17 17.35 15.67 17.27 16.19Z" fill="#191825" fill-opacity="0.500000" fill-rule="nonzero"/>
</svg>
