<svg width="108.478271" height="20.000000" viewBox="0 0 108.478 20" fill="none" xmlns="http://www.w3.org/2000/svg" xmlns:xlink="http://www.w3.org/1999/xlink">
	<desc>
			Created with Pixso.
	</desc>
	<defs/>
	<path id="Vector" d="M62.37 19.46L70.69 0.64C70.82 0.35 70.67 0.11 70.35 0.11L64.52 0.11C64.35 0.12 64.19 0.17 64.04 0.27C63.9 0.36 63.79 0.5 63.71 0.65L55.5 19.46C55.38 19.75 55.53 19.99 55.85 19.99L61.56 19.99C61.88 19.99 62.25 19.75 62.37 19.46ZM92.19 14.39L105.1 0.12L90 0.12L86.59 5.62L92.51 5.62L79.39 20L95.37 20L101.32 14.39L92.19 14.39ZM36.95 0.11L26.96 0.11C26.66 0.13 26.38 0.22 26.13 0.39C25.88 0.55 25.68 0.78 25.55 1.04L17.69 19.07C17.46 19.58 17.74 20 18.3 20L23.25 20C23.81 20 24.45 19.58 24.66 19.07L26.91 13.96L29.23 13.96C29.96 13.91 30.27 14.18 29.87 15.02L28.14 19.07C27.93 19.58 28.2 20 28.76 20L33.71 20C34.01 19.98 34.3 19.89 34.54 19.72C34.79 19.56 34.99 19.33 35.13 19.07L37.38 13.86C38.09 12.17 37.06 10.87 35.58 10.8C36.89 10.32 38.1 9.01 38.64 7.83L39.81 5.08C41.21 1.9 40.22 0.07 36.95 0.12L36.95 0.11ZM34.04 5.8L32.81 8.51C32.52 9.16 32.11 9.21 31.7 9.2L28.92 9.2L30.78 4.97L33.45 4.97C34.1 5.01 34.26 5.25 34.04 5.8ZM56.41 0.1L45.82 0.1C45.61 0.12 45.4 0.18 45.22 0.3C45.05 0.42 44.9 0.58 44.81 0.77L36.7 19.33C36.55 19.69 36.74 19.98 37.14 19.98L48.47 19.98C52.07 19.93 54.13 19.14 55.77 15.33L56.93 12.8C57.85 10.63 56.95 9.69 55.24 9.41C56.66 8.98 57.74 7.63 58.2 6.45L59.15 4.44C60.31 1.76 59.34 0.07 56.4 0.1L56.41 0.1ZM51.21 12.55L50.49 14C50.13 15.01 49.5 15.28 48.62 15.29L45.3 15.29L46.89 11.55L50.2 11.55C51.14 11.62 51.51 11.85 51.21 12.55ZM53.11 5.9L52.61 7.04L52.54 7.19C52.46 7.42 52.3 7.63 52.09 7.77C51.88 7.91 51.63 7.97 51.37 7.95L48.5 7.95L49.82 4.92L52.75 4.92C53.27 4.96 53.36 5.3 53.11 5.9ZM72.52 0.11L70.06 5.62L73.57 5.62C73.81 5.62 73.93 5.79 73.83 6.01L67.69 19.6C67.59 19.82 67.71 20 67.95 20L74.2 20C74.44 20 74.72 19.82 74.81 19.6L80.71 6.01C80.76 5.9 80.85 5.8 80.96 5.73C81.06 5.66 81.18 5.62 81.31 5.61L84.92 5.61L88.31 0.11L72.52 0.11ZM20.64 6.89L21.41 5.19C22.98 1.61 21.95 0.08 18.87 0.12L11.48 0.12C8.43 0.08 5.9 1.79 4.49 4.98L2.21 11.43L0.05 11.43L4.18 17L11 11.43L9.27 11.43L11.27 6.78C11.6 6.01 12.16 5.64 12.76 5.62L13.92 5.62C14.2 5.63 14.38 5.71 14.49 5.83L18.11 2.79L20.64 6.89Z" fill="#191825" fill-opacity="0.500000" fill-rule="nonzero"/>
	<path id="Vector" d="M4.02 18.64L0.99 14.79L0.83 15.14C-0.58 18.34 -0.35 19.94 2.69 19.99L9.99 19.99C13.01 19.94 15.66 18.34 17.07 15.14L19.24 10.16L21.19 10.16L17.87 4.58L11.11 10.16L12.96 10.16L11.59 13.33C11.26 14 10.76 14.37 10.22 14.39L9.25 14.39L4.02 18.64Z" fill="#191825" fill-opacity="0.500000" fill-rule="nonzero"/>
	<path id="Vector" d="M107.5 0C107.77 0 108 0.09 108.19 0.28C108.38 0.47 108.47 0.7 108.47 0.97C108.47 1.23 108.38 1.46 108.19 1.65C108 1.85 107.77 1.94 107.5 1.94C107.38 1.94 107.25 1.91 107.13 1.87C107.01 1.82 106.91 1.75 106.82 1.65C106.63 1.46 106.53 1.23 106.53 0.97C106.53 0.7 106.63 0.46 106.82 0.28C106.91 0.19 107.01 0.12 107.13 0.07C107.25 0.02 107.38 0 107.5 0ZM107.5 1.75C107.61 1.76 107.71 1.74 107.81 1.7C107.91 1.66 107.99 1.6 108.07 1.53C108.14 1.45 108.2 1.36 108.24 1.27C108.28 1.17 108.3 1.07 108.3 0.96C108.3 0.85 108.28 0.75 108.24 0.66C108.2 0.56 108.14 0.47 108.07 0.4C107.99 0.33 107.91 0.27 107.81 0.23C107.71 0.19 107.61 0.17 107.5 0.17C107.4 0.17 107.3 0.19 107.2 0.23C107.1 0.27 107.02 0.33 106.94 0.4C106.79 0.55 106.71 0.75 106.71 0.96C106.71 1.18 106.79 1.37 106.94 1.53C107.1 1.68 107.29 1.75 107.5 1.75ZM108 1.48L107.77 1.48L107.49 1.07L107.37 1.07L107.37 1.48L107.16 1.48L107.16 0.44L107.49 0.44C107.6 0.44 107.69 0.46 107.76 0.51C107.83 0.57 107.87 0.65 107.87 0.75C107.87 0.87 107.8 0.97 107.67 1.02L108 1.48ZM107.37 0.9L107.48 0.9C107.61 0.9 107.67 0.85 107.67 0.75C107.67 0.65 107.62 0.6 107.49 0.6L107.37 0.6L107.37 0.9Z" fill="#191825" fill-opacity="0.500000" fill-rule="nonzero"/>
</svg>
