<svg width="132.391846" height="20.000000" viewBox="0 0 132.392 20" fill="none" xmlns="http://www.w3.org/2000/svg" xmlns:xlink="http://www.w3.org/1999/xlink">
	<desc>
			Created with Pixso.
	</desc>
	<defs/>
	<path id="Vector" d="M14.25 12.01C15.38 15.1 18.82 16.67 21.9 15.54C24.99 14.39 26.57 10.97 25.42 7.88C24.29 4.79 20.86 3.21 17.77 4.35C14.68 5.5 13.11 8.92 14.25 12.01Z" fill="#FFFFFF" fill-opacity="1.000000" fill-rule="nonzero"/>
	<path id="Vector" d="M12.58 9.92C12.58 13.21 9.92 15.88 6.63 15.88C3.33 15.88 0.67 13.21 0.67 9.92C0.67 6.63 3.33 3.96 6.63 3.96C9.92 3.96 12.58 6.63 12.58 9.92Z" fill="#FFFFFF" fill-opacity="1.000000" fill-rule="evenodd"/>
	<path id="Vector" d="M7.64 9.86C7.64 10.47 7.15 10.97 6.54 10.97C5.93 10.97 5.44 10.47 5.44 9.86C5.44 9.26 5.93 8.76 6.54 8.76C7.15 8.76 7.64 9.26 7.64 9.86Z" fill="#191825" fill-opacity="0.500000" fill-rule="nonzero"/>
	<path id="Vector" d="M20.92 9.86C20.92 10.47 20.43 10.97 19.82 10.97C19.21 10.97 18.72 10.47 18.72 9.86C18.72 9.26 19.21 8.76 19.82 8.76C20.43 8.76 20.92 9.26 20.92 9.86Z" fill="#191825" fill-opacity="0.500000" fill-rule="nonzero"/>
	<path id="Vector" d="M3.27 9.86C3.27 11.67 4.74 13.13 6.54 13.13C8.34 13.13 9.81 11.67 9.81 9.86C9.81 8.06 8.34 6.59 6.54 6.59C4.74 6.59 3.27 8.06 3.27 9.86ZM4.39 9.86C4.39 8.68 5.36 7.72 6.54 7.72C7.73 7.72 8.69 8.68 8.69 9.86C8.69 11.05 7.73 12.01 6.54 12.01C5.36 12.01 4.39 11.05 4.39 9.86Z" fill="#191825" fill-opacity="0.500000" fill-rule="nonzero"/>
	<path id="Vector" d="M16.55 9.86C16.55 11.67 18.02 13.13 19.82 13.13C21.63 13.13 23.09 11.67 23.09 9.86C23.09 8.06 21.63 6.59 19.82 6.59C18.02 6.59 16.55 8.06 16.55 9.86ZM17.68 9.86C17.68 8.68 18.64 7.72 19.82 7.72C21.01 7.72 21.97 8.68 21.97 9.86C21.97 11.05 21.01 12.01 19.82 12.01C18.64 12.01 17.68 11.05 17.68 9.86Z" fill="#191825" fill-opacity="0.500000" fill-rule="nonzero"/>
	<path id="Vector" d="M17.54 3.73C18.23 3.47 18.94 3.35 19.63 3.33C17.73 2.48 15.58 2.05 13.2 2.05C10.84 2.05 8.66 2.49 6.76 3.3C10.19 3.37 12.99 6.06 13.23 9.45C13.29 8.67 13.48 7.91 13.81 7.17C14.55 5.57 15.88 4.34 17.54 3.73Z" fill="#FFFFFF" fill-opacity="1.000000" fill-rule="nonzero"/>
	<path id="Vector" d="M25.16 6.01C25.47 4.68 26.46 3.35 26.46 3.35L22.04 3.35C19.55 1.75 16.54 0.89 13.2 0.89C9.74 0.89 6.61 1.76 4.14 3.38L0 3.38C0 3.38 0.97 4.7 1.28 6.02C0.48 7.11 0 8.46 0 9.92C0 13.58 2.97 16.55 6.63 16.55C8.72 16.55 10.58 15.58 11.79 14.07L13.21 16.18L14.63 14.05C15.27 14.86 16.09 15.52 17.06 15.97C18.67 16.71 20.47 16.78 22.13 16.17C25.56 14.9 27.32 11.08 26.05 7.65C25.83 7.05 25.53 6.5 25.16 6.01ZM13.2 2.05C15.58 2.05 17.73 2.48 19.63 3.33C18.94 3.35 18.23 3.48 17.54 3.73C15.88 4.34 14.55 5.56 13.82 7.17C13.48 7.9 13.29 8.67 13.23 9.45C12.99 6.06 10.19 3.37 6.76 3.3C8.66 2.49 10.84 2.05 13.2 2.05ZM11.01 12.89C10.06 14.29 8.45 15.21 6.63 15.21C3.71 15.21 1.33 12.84 1.33 9.92C1.33 7.01 3.71 4.64 6.63 4.64C9.54 4.64 11.92 7.01 11.92 9.92C11.92 10.1 11.88 10.27 11.86 10.44C11.78 11.34 11.49 12.17 11.01 12.89ZM21.67 14.91C20.34 15.4 18.91 15.35 17.62 14.75C16.71 14.33 15.97 13.67 15.43 12.85C15.21 12.52 15.02 12.17 14.87 11.78C14.71 11.34 14.63 10.89 14.59 10.44C14.5 9.52 14.63 8.6 15.03 7.73C15.62 6.45 16.68 5.47 18 4.98C20.74 3.97 23.79 5.38 24.8 8.11C25.81 10.85 24.41 13.9 21.67 14.91Z" fill="#191825" fill-opacity="0.500000" fill-rule="nonzero"/>
	<path id="Vector" d="M34.28 1.86L32.34 2.53C32.34 2.53 32.34 4.85 32.34 5.06C32.13 5.06 30.19 5.06 30.19 5.06L30.19 6.76C30.19 6.76 32.07 6.76 32.28 6.76C32.28 6.98 32.28 12.21 32.28 12.21C32.28 14.8 33.16 15.86 35.33 15.86C35.88 15.86 36.4 15.79 36.93 15.65L37.02 15.63L36.99 13.87L36.84 13.92C36.42 14.07 36.09 14.14 35.83 14.14C34.81 14.14 34.43 13.57 34.43 12.03C34.43 12.03 34.43 6.98 34.43 6.76C34.64 6.76 36.91 6.76 36.91 6.76L36.91 5.06C36.91 5.06 34.64 5.06 34.43 5.06C34.43 4.85 34.43 1.81 34.43 1.81L34.28 1.86Z" fill="#191825" fill-opacity="0.500000" fill-rule="nonzero"/>
	<path id="Vector" d="M40.99 6.78C40.99 6.18 40.99 5.06 40.99 5.06L39.02 5.06L39.02 15.67L41.17 15.67L41.17 10.35C41.17 8.12 42.11 6.89 43.81 6.89C44.05 6.89 44.29 6.92 44.58 7L44.72 7.04L44.79 4.95L43.87 4.88C42.62 4.88 41.61 5.55 40.99 6.78Z" fill="#191825" fill-opacity="0.500000" fill-rule="nonzero"/>
	<path id="Vector" d="M48.63 5.06L46.59 5.06L46.59 15.67L48.74 15.67L48.74 5.06L48.63 5.06ZM46.38 1.95C46.38 2.66 46.96 3.23 47.66 3.23C48.37 3.23 48.94 2.66 48.94 1.95C48.94 1.25 48.37 0.67 47.66 0.67C46.96 0.67 46.38 1.25 46.38 1.95Z" fill="#191825" fill-opacity="0.500000" fill-rule="nonzero"/>
	<path id="Vector" d="M56.34 4.81C54.87 4.81 53.62 5.51 52.8 6.78C52.8 6.27 52.8 5.06 52.8 5.06L50.83 5.06L50.83 20L52.98 20C52.98 20 52.98 14.78 52.98 14.21C53.76 15.26 54.87 15.84 56.26 15.84C58.98 15.84 60.74 13.61 60.74 10.16C60.74 6.96 58.97 4.81 56.34 4.81ZM55.74 14.1C54.04 14.1 52.98 12.65 52.98 10.31C52.98 8.05 54.1 6.59 55.82 6.59C57.49 6.59 58.48 7.98 58.48 10.28C58.48 12.64 57.43 14.1 55.74 14.1Z" fill="#191825" fill-opacity="0.500000" fill-rule="nonzero"/>
	<path id="Vector" d="M67.03 4.81C65.71 4.81 64.56 5.06 63.5 5.57L63.44 5.6L63.46 7.44L63.63 7.34C64.64 6.78 65.6 6.49 66.47 6.49C68.03 6.49 68.92 7.38 68.92 8.94C68.92 8.94 68.92 8.99 68.92 9.03C68.73 9.03 67.69 9.03 67.69 9.03C64.15 9.03 62.2 10.32 62.2 12.64C62.2 14.51 63.6 15.82 65.62 15.82C67.1 15.82 68.25 15.24 69.06 14.14C69.06 14.57 69.06 15.67 69.06 15.67L71.01 15.67L71.01 9.25C71.01 6.31 69.67 4.81 67.03 4.81ZM68.92 11.19C68.92 13.02 67.82 14.2 66.12 14.2C65.07 14.2 64.35 13.52 64.35 12.54C64.35 11.25 65.58 10.55 67.81 10.55C67.81 10.55 68.73 10.55 68.92 10.55C68.92 10.71 68.92 11.19 68.92 11.19Z" fill="#191825" fill-opacity="0.500000" fill-rule="nonzero"/>
	<path id="Vector" d="M80.15 0C80.15 0 80.15 5.91 80.15 6.5C79.35 5.4 78.25 4.82 76.83 4.82C74.2 4.82 72.43 6.98 72.43 10.21C72.43 13.52 74.22 15.84 76.79 15.84C78.31 15.84 79.49 15.17 80.31 13.86C80.31 14.39 80.31 15.67 80.31 15.67L82.3 15.67L82.3 0L80.15 0ZM77.35 14.06C75.71 14.06 74.69 12.63 74.69 10.33C74.69 8.02 75.71 6.53 77.31 6.53C79.08 6.53 80.14 7.95 80.14 10.33C80.15 12.6 79.05 14.06 77.35 14.06Z" fill="#191825" fill-opacity="0.500000" fill-rule="nonzero"/>
	<path id="Vector" d="M91.92 5.06L88.87 11.19L86.04 5.06L83.62 5.06L88.82 15.67L94.16 5.06L91.92 5.06Z" fill="#191825" fill-opacity="0.500000" fill-rule="nonzero"/>
	<path id="Vector" d="M97.29 5.06L95.26 5.06L95.26 15.67L97.41 15.67L97.41 5.06L97.29 5.06ZM95.05 1.95C95.05 2.66 95.63 3.23 96.33 3.23C97.04 3.23 97.61 2.66 97.61 1.95C97.61 1.25 97.04 0.67 96.33 0.67C95.63 0.67 95.05 1.25 95.05 1.95Z" fill="#191825" fill-opacity="0.500000" fill-rule="nonzero"/>
	<path id="Vector" d="M99.93 7.78C99.93 9.28 100.96 10.06 102.85 10.99C104.05 11.57 104.67 11.92 104.67 12.75C104.67 13.6 103.91 14.14 102.72 14.14C101.88 14.14 100.94 13.91 100.02 13.45L99.86 13.37L99.79 15.25L99.86 15.27C100.75 15.62 101.67 15.8 102.64 15.8C105.27 15.8 106.97 14.54 106.97 12.6C106.97 10.98 105.89 10.16 104.03 9.29C102.66 8.65 102.09 8.28 102.09 7.6C102.09 6.95 102.72 6.53 103.71 6.53C104.6 6.53 105.47 6.73 106.29 7.12L106.44 7.19L106.54 5.36L106.45 5.34C105.56 5.07 104.68 4.94 103.83 4.94C101.5 4.94 99.93 6.08 99.93 7.78Z" fill="#191825" fill-opacity="0.500000" fill-rule="nonzero"/>
	<path id="Vector" d="M113.68 4.81C110.45 4.81 108.44 6.94 108.44 10.37C108.44 13.79 110.45 15.92 113.68 15.92C116.93 15.92 118.95 13.79 118.95 10.37C118.95 6.94 116.93 4.81 113.68 4.81ZM113.7 14.16C111.91 14.16 110.71 12.63 110.71 10.35C110.71 8.05 111.91 6.51 113.7 6.51C115.52 6.51 116.69 8.02 116.69 10.35C116.69 12.66 115.52 14.16 113.7 14.16Z" fill="#191825" fill-opacity="0.500000" fill-rule="nonzero"/>
	<path id="Vector" d="M122.92 6.78C122.92 6.18 122.92 5.06 122.92 5.06L120.95 5.06L120.95 15.67L123.1 15.67L123.1 10.35C123.1 8.12 124.03 6.89 125.74 6.89C125.98 6.89 126.22 6.92 126.5 7L126.65 7.04L126.72 4.95L125.79 4.88C124.55 4.88 123.55 5.55 122.92 6.78Z" fill="#191825" fill-opacity="0.500000" fill-rule="nonzero"/>
	<path id="Vector" d="M131.85 4.59C132.2 4.95 132.39 5.42 132.39 5.94C132.39 6.47 132.19 6.95 131.82 7.3C131.44 7.66 130.96 7.86 130.47 7.86C129.95 7.86 129.47 7.66 129.1 7.27C128.75 6.91 128.55 6.44 128.55 5.93C128.55 5.42 128.75 4.93 129.13 4.55C129.49 4.2 129.95 4.01 130.47 4.01C131 4.01 131.48 4.21 131.85 4.59ZM129.37 4.8C129.06 5.11 128.89 5.51 128.89 5.94C128.89 6.35 129.05 6.73 129.34 7.03C129.64 7.34 130.04 7.51 130.46 7.51C130.87 7.51 131.27 7.35 131.57 7.05C131.87 6.76 132.04 6.37 132.04 5.94C132.04 5.51 131.88 5.13 131.59 4.83C131.28 4.52 130.9 4.36 130.47 4.36C130.04 4.36 129.67 4.51 129.37 4.8ZM130.5 4.84C131.1 4.84 131.41 5.06 131.41 5.45C131.41 5.73 131.25 5.94 130.96 6.02L131.44 6.95L130.8 6.95L130.4 6.11L130.24 6.11L130.24 6.95L129.65 6.95L129.65 4.84L130.5 4.84ZM130.23 5.77L130.43 5.77C130.69 5.77 130.82 5.68 130.82 5.5C130.82 5.29 130.69 5.21 130.4 5.21L130.23 5.21L130.23 5.77Z" fill="#191825" fill-opacity="0.500000" fill-rule="nonzero"/>
</svg>
