<svg width="20.000000" height="20.000000" viewBox="0 0 20 20" fill="none" xmlns="http://www.w3.org/2000/svg" xmlns:xlink="http://www.w3.org/1999/xlink">
	<desc>
			Created with Pixso.
	</desc>
	<defs/>
	<path id="Vector" d="M10 0C4.47 0 0 4.48 0 10C0 15.51 4.47 20 10 20C15.52 20 20 15.51 20 10C20 4.48 15.53 0 10 0ZM13 12.23L10.09 13.89C9.73 14.1 9.34 14.21 8.94 14.21C8.55 14.21 8.15 14.1 7.8 13.89C7.08 13.48 6.64 12.73 6.64 11.89L6.64 8.55C6.64 7.71 7.08 6.96 7.8 6.55C8.52 6.12 9.37 6.12 10.1 6.55L13.01 8.21C13.73 8.64 14.15 9.37 14.15 10.21C14.15 11.05 13.73 11.8 13 12.23Z" fill="#5D50C6" fill-opacity="1.000000" fill-rule="nonzero"/>
</svg>
