<svg width="20.000000" height="20.000000" viewBox="0 0 20 20" fill="none" xmlns="http://www.w3.org/2000/svg" xmlns:xlink="http://www.w3.org/1999/xlink">
	<desc>
			Created with Pixso.
	</desc>
	<defs/>
	<path id="Vector" d="M8.7 1.51C8.03 1.51 7.46 1.98 7.3 2.61L12.68 2.61C12.52 1.98 11.95 1.51 11.28 1.51L8.7 1.51ZM14.2 2.61L16.18 2.61C18.28 2.61 20 4.34 20 6.47C20 6.47 19.93 7.37 19.91 8.62C19.91 8.72 19.86 8.82 19.79 8.87C19.3 9.23 18.86 9.52 18.82 9.55C17.16 10.66 15.23 11.44 13.18 11.83C13.04 11.86 12.91 11.79 12.84 11.67C12.27 10.67 11.19 10.02 9.99 10.02C8.8 10.02 7.71 10.66 7.12 11.66C7.05 11.78 6.92 11.85 6.79 11.82C4.75 11.43 2.82 10.65 1.17 9.55L0.21 8.89C0.13 8.83 0.08 8.75 0.08 8.64C0.05 8.13 0 6.47 0 6.47C0 4.34 1.71 2.61 3.81 2.61L5.78 2.61C5.97 1.14 7.2 0 8.7 0L11.28 0C12.78 0 14.01 1.14 14.2 2.61ZM19.65 10.81L19.61 10.83C17.59 12.19 15.16 13.09 12.61 13.46C12.25 13.51 11.89 13.28 11.79 12.92C11.57 12.08 10.86 11.54 10.01 11.54L10 11.54L9.98 11.54C9.13 11.54 8.42 12.08 8.2 12.92C8.1 13.28 7.74 13.51 7.38 13.46C4.83 13.09 2.4 12.19 0.38 10.83C0.37 10.82 0.27 10.76 0.19 10.81C0.1 10.86 0.1 10.98 0.1 10.98L0.17 16.15C0.17 18.27 1.87 20 3.97 20L16.01 20C18.11 20 19.81 18.27 19.81 16.15L19.89 10.98C19.89 10.98 19.89 10.86 19.8 10.81C19.76 10.78 19.7 10.79 19.65 10.81ZM10.74 15.05C10.74 15.48 10.41 15.81 9.99 15.81C9.58 15.81 9.24 15.48 9.24 15.05L9.24 13.75C9.24 13.33 9.58 12.99 9.99 12.99C10.41 12.99 10.74 13.33 10.74 13.75L10.74 15.05Z" fill="#F85E9F" fill-opacity="1.000000" fill-rule="evenodd"/>
</svg>
