<svg width="8.726562" height="10.265625" viewBox="0 0 8.72656 10.2656" fill="none" xmlns="http://www.w3.org/2000/svg" xmlns:xlink="http://www.w3.org/1999/xlink">
	<desc>
			Created with Pixso.
	</desc>
	<defs/>
	<path id="Vector" d="M0 4.26C0 1.91 1.97 0 4.35 0C6.75 0 8.72 1.91 8.72 4.26C8.72 5.46 8.29 6.56 7.58 7.5C6.79 8.53 5.82 9.43 4.73 10.14C4.48 10.3 4.26 10.31 3.98 10.14C2.89 9.43 1.92 8.53 1.14 7.5C0.43 6.56 0 5.46 0 4.26ZM2.92 4.4C2.92 5.19 3.56 5.81 4.35 5.81C5.15 5.81 5.8 5.19 5.8 4.4C5.8 3.61 5.15 2.96 4.35 2.96C3.56 2.96 2.92 3.61 2.92 4.4Z" fill="#FACD49" fill-opacity="1.000000" fill-rule="evenodd"/>
</svg>
