<svg width="40.000000" height="40.000000" viewBox="0 0 40 40" fill="none" xmlns="http://www.w3.org/2000/svg" xmlns:xlink="http://www.w3.org/1999/xlink">
	<desc>
			Created with Pixso.
	</desc>
	<defs>
		<linearGradient x1="35.999966" y1="43.199959" x2="3.999969" y2="-4.799986" id="paint_linear_1156_1660_0" gradientUnits="userSpaceOnUse">
			<stop stop-color="#5D50C6"/>
			<stop offset="1.000000" stop-color="#F85E9F"/>
		</linearGradient>
	</defs>
	<path id="Vector" d="M8.55 3.59C7.12 4.59 5.82 5.78 4.7 7.11C9.29 6.68 15.12 7.38 21.89 10.76C29.12 14.38 34.94 14.5 38.99 13.72C38.62 12.6 38.16 11.53 37.61 10.52C32.97 11.01 27.03 10.36 20.1 6.89C15.7 4.69 11.82 3.79 8.55 3.59ZM34.9 6.66C31.24 2.57 25.92 0 20 0C18.26 0 16.57 0.22 14.96 0.64C17.14 1.23 19.45 2.1 21.89 3.32C26.96 5.85 31.34 6.67 34.9 6.66ZM39.86 17.62C34.96 18.59 28.2 18.39 20.1 14.34C12.53 10.55 6.5 10.6 2.43 11.5C2.22 11.55 2.01 11.6 1.81 11.65C1.28 12.81 0.86 14.03 0.55 15.29C0.88 15.2 1.21 15.12 1.56 15.04C6.49 13.95 13.47 14 21.89 18.21C29.47 22 35.49 21.95 39.56 21.04C39.7 21.01 39.84 20.98 39.97 20.95C39.99 20.63 40 20.32 40 20C40 19.19 39.95 18.4 39.86 17.62ZM39.32 25.17C34.47 26.01 27.91 25.69 20.1 21.78C12.53 18 6.5 18.04 2.43 18.95C1.53 19.15 0.71 19.39 0 19.65C0 19.76 0 19.88 0 20C0 31.04 8.95 40 20 40C29.25 40 37.04 33.71 39.32 25.17Z" fill="url(#paint_linear_1156_1660_0)" fill-opacity="1.000000" fill-rule="evenodd"/>
</svg>
