<svg width="20.002686" height="19.000000" viewBox="0 0 20.0027 19" fill="none" xmlns="http://www.w3.org/2000/svg" xmlns:xlink="http://www.w3.org/1999/xlink">
	<desc>
			Created with Pixso.
	</desc>
	<defs/>
	<path id="Vector" d="M15.91 11.82C15.65 12.07 15.54 12.43 15.59 12.78L16.48 17.71C16.56 18.12 16.38 18.55 16.03 18.78C15.69 19.03 15.24 19.07 14.86 18.87L10.43 16.55C10.28 16.47 10.11 16.43 9.93 16.42L9.66 16.42C9.57 16.44 9.48 16.47 9.39 16.51L4.96 18.83C4.74 18.94 4.5 18.98 4.25 18.94C3.66 18.83 3.27 18.27 3.36 17.67L4.25 12.75C4.31 12.39 4.19 12.03 3.93 11.78L0.32 8.28C0.02 7.98 -0.08 7.54 0.05 7.14C0.19 6.75 0.53 6.46 0.94 6.39L5.91 5.67C6.29 5.64 6.62 5.41 6.79 5.07L8.98 0.57C9.04 0.48 9.1 0.38 9.18 0.3L9.27 0.23C9.32 0.18 9.37 0.14 9.43 0.1L9.54 0.07L9.71 0L10.13 0C10.51 0.03 10.84 0.26 11.01 0.6L13.23 5.07C13.39 5.39 13.71 5.62 14.06 5.67L19.03 6.39C19.45 6.46 19.8 6.75 19.94 7.14C20.07 7.55 19.96 7.99 19.65 8.28L15.91 11.82Z" fill="#FF5722" fill-opacity="1.000000" fill-rule="nonzero"/>
</svg>
