<svg width="16.426270" height="16.425781" viewBox="0 0 16.4263 16.4258" fill="none" xmlns="http://www.w3.org/2000/svg" xmlns:xlink="http://www.w3.org/1999/xlink">
	<desc>
			Created with Pixso.
	</desc>
	<defs>
		<clipPath id="clip1156_1688">
			<rect id="send 1" rx="0.000000" width="15.913043" height="15.913043" transform="translate(0.256662 0.256662)" fill="white" fill-opacity="0"/>
		</clipPath>
	</defs>
	<rect id="send 1" rx="0.000000" width="15.913043" height="15.913043" transform="translate(0.256662 0.256662)" fill="#FFFFFF" fill-opacity="0"/>
	<g clip-path="url(#clip1156_1688)">
		<path id="Vector" d="M14.67 1.76C14.32 1.41 13.82 1.28 13.34 1.42L2.33 4.62C1.83 4.76 1.48 5.16 1.38 5.66C1.28 6.17 1.62 6.83 2.07 7.1L5.51 9.22C5.86 9.43 6.32 9.38 6.61 9.08L10.56 5.12C10.76 4.91 11.09 4.91 11.28 5.12C11.48 5.32 11.48 5.64 11.28 5.85L7.33 9.82C7.04 10.11 6.98 10.57 7.2 10.92L9.3 14.41C9.55 14.82 9.98 15.05 10.44 15.05C10.5 15.05 10.56 15.05 10.61 15.05C11.15 14.98 11.57 14.61 11.73 14.09L14.99 3.09C15.14 2.62 15.01 2.11 14.67 1.76Z" fill="#FFFFFF" fill-opacity="1.000000" fill-rule="nonzero"/>
	</g>
</svg>
